<?xml version="1.0" encoding="UTF-8" standalone="no"?>
<!DOCTYPE svg PUBLIC "-//W3C//DTD SVG 1.1//EN"
 "http://www.w3.org/Graphics/SVG/1.1/DTD/svg11.dtd">
<!-- Generated by graphviz version 2.36.0 (20140111.2315)
 -->
<!-- Title: %3 Pages: 1 -->
<svg width="220pt" height="188pt"
 viewBox="0.00 0.00 220.00 188.00" xmlns="http://www.w3.org/2000/svg" xmlns:xlink="http://www.w3.org/1999/xlink">
<g id="graph0" class="graph" transform="scale(1 1) rotate(0) translate(4 184)">
<title>%3</title>
<polygon fill="white" stroke="none" points="-4,4 -4,-184 216,-184 216,4 -4,4"/>
<!-- &#45;__root__ -->
<g id="node1" class="node"><title>&#45;__root__</title>
<ellipse fill="none" stroke="black" cx="108" cy="-162" rx="45.244" ry="18"/>
<text text-anchor="middle" x="108" y="-158.3" font-family="Times,serif" font-size="14.00">&#45;__root__</text>
</g>
<!-- 0.&#45;child_1 -->
<g id="node2" class="node"><title>0.&#45;child_1</title>
<ellipse fill="none" stroke="black" cx="108" cy="-90" rx="46.1964" ry="18"/>
<text text-anchor="middle" x="108" y="-86.3" font-family="Times,serif" font-size="14.00">0.&#45;child_1</text>
</g>
<!-- &#45;__root__&#45;&#45;0.&#45;child_1 -->
<g id="edge3" class="edge"><title>&#45;__root__&#45;&#45;0.&#45;child_1</title>
<path fill="none" stroke="black" d="M108,-143.697C108,-132.846 108,-118.917 108,-108.104"/>
</g>
<!-- 0.0.&#45;import -->
<g id="node3" class="node"><title>0.0.&#45;import</title>
<ellipse fill="none" stroke="black" cx="51" cy="-18" rx="51.0191" ry="18"/>
<text text-anchor="middle" x="51" y="-14.3" font-family="Times,serif" font-size="14.00">0.0.&#45;import</text>
</g>
<!-- 0.&#45;child_1&#45;&#45;0.0.&#45;import -->
<g id="edge1" class="edge"><title>0.&#45;child_1&#45;&#45;0.0.&#45;import</title>
<path fill="none" stroke="black" d="M94.4918,-72.411C85.4055,-61.2524 73.4772,-46.6036 64.4112,-35.4699"/>
</g>
<!-- 0.1.&#45;assoc -->
<g id="node4" class="node"><title>0.1.&#45;assoc</title>
<ellipse fill="none" stroke="black" cx="166" cy="-18" rx="46.2191" ry="18"/>
<text text-anchor="middle" x="166" y="-14.3" font-family="Times,serif" font-size="14.00">0.1.&#45;assoc</text>
</g>
<!-- 0.&#45;child_1&#45;&#45;0.1.&#45;assoc -->
<g id="edge2" class="edge"><title>0.&#45;child_1&#45;&#45;0.1.&#45;assoc</title>
<path fill="none" stroke="black" d="M121.452,-72.7646C130.688,-61.6175 142.912,-46.865 152.218,-35.6334"/>
</g>
</g>
</svg>
